<svg xmlns="http://www.w3.org/2000/svg" width="1361" height="404" viewBox="219.5 78 1361 404">
  <defs>
    <linearGradient id="elarionGradient" x1="0" y1="0" x2="1" y2="1">
      <stop offset="0%" stop-color="#6E45F6"/>
      <stop offset="52%" stop-color="#2E68FF"/>
      <stop offset="100%" stop-color="#2FD6E8"/>
    </linearGradient>
    <linearGradient id="elarionGradientHorizontal" x1="0" y1="0" x2="1" y2="0">
      <stop offset="0%" stop-color="#6E45F6"/>
      <stop offset="65%" stop-color="#2E68FF"/>
      <stop offset="100%" stop-color="#2FD6E8"/>
    </linearGradient>
    <filter id="softShadow" x="-30%" y="-30%" width="160%" height="160%">
      <feDropShadow dx="0" dy="18" stdDeviation="18" flood-color="#000000" flood-opacity="0.18"/>
    </filter>
  </defs>

  <g transform="translate(134.5 0)">
    <g transform="translate(128 154) scale(1.05)">
      <circle cx="34" cy="52" r="14" fill="url(#elarionGradient)"/>
      <circle cx="34" cy="110" r="14" fill="url(#elarionGradient)" opacity="0.92"/>
      <circle cx="34" cy="168" r="14" fill="url(#elarionGradient)" opacity="0.84"/>
      <rect x="64" y="38" width="126" height="28" rx="14" fill="url(#elarionGradientHorizontal)"/>
      <rect x="64" y="96" width="92" height="28" rx="14" fill="url(#elarionGradientHorizontal)"/>
      <rect x="64" y="154" width="152" height="28" rx="14" fill="url(#elarionGradientHorizontal)"/>
      <rect x="64" y="77" width="56" height="14" rx="7" fill="url(#elarionGradientHorizontal)" opacity="0.36"/>
      <rect x="64" y="135" width="78" height="14" rx="7" fill="url(#elarionGradientHorizontal)" opacity="0.36"/>
    </g>

    <line x1="420" y1="142" x2="420" y2="418" stroke="#FFFFFF" stroke-opacity="0.32" stroke-width="4"/>
    <text x="500" y="300" font-family="Inter, Segoe UI, Arial, sans-serif" font-size="154" font-weight="750" fill="#FFFFFF" letter-spacing="-5">Elarion</text>
    <text x="510" y="382" font-family="Inter, Segoe UI, Arial, sans-serif" font-size="35" font-weight="700" fill="#DCE5F4" letter-spacing="8">APPLICATION FRAMEWORK FOR .NET</text>
  </g>
</svg>
